<?xml version="1.0" encoding="UTF-8"?><svg xmlns="http://www.w3.org/2000/svg" xmlns:xlink="http://www.w3.org/1999/xlink" fill-opacity="1" color-rendering="auto" color-interpolation="auto" text-rendering="auto" stroke="black" stroke-linecap="square" width="857" stroke-miterlimit="10" shape-rendering="auto" stroke-opacity="1" fill="black" stroke-dasharray="none" font-weight="normal" stroke-width="1" height="414" font-family="'Dialog'" font-style="normal" stroke-linejoin="miter" font-size="12px" stroke-dashoffset="0" image-rendering="auto">
  <defs id="genericDefs"/>
  <g>
    <defs id="defs1">
      <linearGradient x1="99.7403" gradientUnits="userSpaceOnUse" x2="248.5285" y1="389.3565" y2="389.3565" id="linearGradient1" spreadMethod="reflect">
        <stop stop-opacity="1" stop-color="rgb(112,203,255)" offset="0%"/>
        <stop stop-opacity="1" stop-color="rgb(56,182,255)" offset="100%"/>
      </linearGradient>
      <linearGradient x1="99.7403" gradientUnits="userSpaceOnUse" x2="248.5285" y1="445.5385" y2="445.5385" id="linearGradient2" spreadMethod="reflect">
        <stop stop-opacity="1" stop-color="rgb(112,203,255)" offset="0%"/>
        <stop stop-opacity="1" stop-color="rgb(56,182,255)" offset="100%"/>
      </linearGradient>
      <linearGradient x1="99.7403" gradientUnits="userSpaceOnUse" x2="248.5285" y1="558.0385" y2="558.0385" id="linearGradient3" spreadMethod="reflect">
        <stop stop-opacity="1" stop-color="rgb(112,203,255)" offset="0%"/>
        <stop stop-opacity="1" stop-color="rgb(56,182,255)" offset="100%"/>
      </linearGradient>
      <linearGradient x1="438.9226" gradientUnits="userSpaceOnUse" x2="587.7109" y1="389.3565" y2="389.3565" id="linearGradient4" spreadMethod="reflect">
        <stop stop-opacity="1" stop-color="rgb(41,80,121)" offset="0%"/>
        <stop stop-opacity="1" stop-color="rgb(27,52,79)" offset="100%"/>
      </linearGradient>
      <clipPath clipPathUnits="userSpaceOnUse" id="clipPath1">
        <path d="M0 0 L857 0 L857 414 L0 414 L0 0 Z"/>
      </clipPath>
      <clipPath clipPathUnits="userSpaceOnUse" id="clipPath2">
        <path d="M-14 336 L843 336 L843 750 L-14 750 L-14 336 Z"/>
      </clipPath>
      <clipPath clipPathUnits="userSpaceOnUse" id="clipPath3">
        <path d="M-622.3118 -10.3609 L234.6881 -10.3609 L234.6881 414.5417 L-622.3118 414.5417 L-622.3118 -10.3609 Z"/>
      </clipPath>
      <clipPath clipPathUnits="userSpaceOnUse" id="clipPath4">
        <path d="M231.9489 -310.0285 L231.9489 546.9714 L-182.0511 546.9714 L-182.0511 -310.0285 L231.9489 -310.0285 Z"/>
      </clipPath>
    </defs>
    <g fill="rgb(245,245,245)" text-rendering="geometricPrecision" shape-rendering="geometricPrecision" transform="matrix(1,0,0,1,14,-336)" stroke="rgb(245,245,245)">
      <rect x="1.3462" y="351.9801" clip-path="url(#clipPath2)" width="262.1823" rx="4" ry="4" height="281.0584" stroke="none"/>
    </g>
    <g fill="rgb(235,235,235)" text-rendering="geometricPrecision" shape-rendering="geometricPrecision" transform="matrix(1,0,0,1,14,-336)" stroke="rgb(235,235,235)">
      <rect x="1.3462" width="262.1823" height="22.3765" y="351.9801" clip-path="url(#clipPath2)" stroke="none"/>
    </g>
    <g font-size="15px" stroke-linecap="butt" transform="matrix(1,0,0,1,14,-336)" text-rendering="geometricPrecision" font-family="sans-serif" shape-rendering="geometricPrecision" stroke-miterlimit="1.45">
      <text x="99.9288" xml:space="preserve" y="369.0606" clip-path="url(#clipPath2)" stroke="none">Full Block</text>
      <rect x="1.3462" y="351.9801" clip-path="url(#clipPath2)" fill="none" width="262.1823" rx="4" ry="4" height="281.0584"/>
    </g>
    <g fill="url(#linearGradient1)" text-rendering="geometricPrecision" shape-rendering="geometricPrecision" transform="matrix(1,0,0,1,14,-336)" stroke="url(#linearGradient1)">
      <rect x="25.3462" width="223.1823" height="35.8728" y="389.3565" clip-path="url(#clipPath2)" stroke="none"/>
    </g>
    <g text-rendering="geometricPrecision" stroke-miterlimit="1.45" shape-rendering="geometricPrecision" transform="matrix(1,0,0,1,14,-336)" stroke-linecap="butt">
      <rect fill="none" x="25.3462" width="223.1823" height="35.8728" y="389.3565" clip-path="url(#clipPath2)"/>
      <text x="100.9198" xml:space="preserve" y="412.0068" clip-path="url(#clipPath2)" font-family="sans-serif" stroke="none">Block Header</text>
    </g>
    <g fill="url(#linearGradient2)" text-rendering="geometricPrecision" shape-rendering="geometricPrecision" transform="matrix(1,0,0,1,14,-336)" stroke="url(#linearGradient2)">
      <rect x="25.3462" width="223.1823" height="120" y="445.5385" clip-path="url(#clipPath2)" stroke="none"/>
    </g>
    <g text-rendering="geometricPrecision" stroke-miterlimit="1.45" shape-rendering="geometricPrecision" transform="matrix(1,0,0,1,14,-336)" stroke-linecap="butt">
      <rect fill="none" x="25.3462" width="223.1823" height="120" y="445.5385" clip-path="url(#clipPath2)"/>
      <text x="79.911" xml:space="preserve" y="510.2523" clip-path="url(#clipPath2)" font-family="sans-serif" stroke="none">Regular Transactions</text>
    </g>
    <g fill="url(#linearGradient3)" text-rendering="geometricPrecision" shape-rendering="geometricPrecision" transform="matrix(1,0,0,1,14,-336)" stroke="url(#linearGradient3)">
      <rect x="25.3462" width="223.1823" height="60" y="558.0385" clip-path="url(#clipPath2)" stroke="none"/>
    </g>
    <g text-rendering="geometricPrecision" stroke-miterlimit="1.45" shape-rendering="geometricPrecision" transform="matrix(1,0,0,1,14,-336)" stroke-linecap="butt">
      <rect fill="none" x="25.3462" width="223.1823" height="60" y="558.0385" clip-path="url(#clipPath2)"/>
      <text x="85.58" xml:space="preserve" y="592.7523" clip-path="url(#clipPath2)" font-family="sans-serif" stroke="none">Stake Transactions</text>
    </g>
    <g fill="rgb(245,245,245)" text-rendering="geometricPrecision" shape-rendering="geometricPrecision" transform="matrix(1,0,0,1,14,-336)" stroke="rgb(245,245,245)">
      <rect x="340.5285" y="351.9801" clip-path="url(#clipPath2)" width="262.1823" rx="4" ry="4" height="95.3765" stroke="none"/>
      <rect x="340.5285" y="351.9801" clip-path="url(#clipPath2)" fill="rgb(235,235,235)" width="262.1823" height="22.3765" stroke="none"/>
    </g>
    <g font-size="15px" stroke-linecap="butt" transform="matrix(1,0,0,1,14,-336)" text-rendering="geometricPrecision" font-family="sans-serif" shape-rendering="geometricPrecision" stroke-miterlimit="1.45">
      <text x="382.0042" xml:space="preserve" y="369.0606" clip-path="url(#clipPath2)" stroke="none">Space-Efficient Block Filter</text>
      <rect x="340.5285" y="351.9801" clip-path="url(#clipPath2)" fill="none" width="262.1823" rx="4" ry="4" height="95.3765"/>
    </g>
    <g fill="url(#linearGradient4)" text-rendering="geometricPrecision" shape-rendering="geometricPrecision" transform="matrix(1,0,0,1,14,-336)" stroke="url(#linearGradient4)">
      <rect x="364.5285" width="223.1823" height="43" y="389.3565" clip-path="url(#clipPath2)" stroke="none"/>
    </g>
    <g text-rendering="geometricPrecision" stroke-miterlimit="1.45" shape-rendering="geometricPrecision" transform="matrix(1,0,0,1,14,-336)" stroke-linecap="butt">
      <rect fill="none" x="364.5285" width="223.1823" height="43" y="389.3565" clip-path="url(#clipPath2)"/>
      <text x="448.4459" y="408.2198" clip-path="url(#clipPath2)" fill="white" font-family="sans-serif" stroke="none" xml:space="preserve">Filter Data</text>
      <text x="408.3941" y="422.921" clip-path="url(#clipPath2)" fill="white" font-family="sans-serif" stroke="none" xml:space="preserve">0x230e0aeec....3b21f100</text>
    </g>
    <g text-rendering="geometricPrecision" shape-rendering="geometricPrecision" transform="matrix(1,0,0,0.9743,622.3119,10.0951)">
      <g clip-path="url(#clipPath3)">
        <svg opacity="1" writing-mode="lr-tb" shape-rendering="auto" stop-color="rgb(0, 0, 0)" glyph-orientation-horizontal="0deg" color-profile="auto" lighting-color="rgb(255, 255, 255)" color="rgb(0, 0, 0)" font-weight="400" alignment-baseline="auto" font-style="normal" color-interpolation-filters="linearrgb" text-anchor="start" stroke-linecap="butt" color-interpolation="srgb" font-variant="normal" word-spacing="normal" fill-opacity="1" text-rendering="auto" clip-path="none" text-decoration="none" letter-spacing="normal" glyph-orientation-vertical="auto" display="inline" font-size-adjust="none" fill="rgb(0, 0, 0)" overflow="hidden" font-stretch="normal" stroke-dasharray="none" stroke-miterlimit="4" stop-opacity="1" color-rendering="auto" font-size="12" mask="none" direction="ltr" baseline-shift="baseline" pointer-events="visiblepainted" enable-background="accumulate" fill-rule="nonzero" image-rendering="auto" stroke-dashoffset="0" width="300" marker-end="none" clip="auto" cursor="auto" stroke="none" filter="none" visibility="visible" kerning="auto" stroke-width="1" font-family="&quot;Arial&quot;,&quot;Helvetica&quot;,sans-serif" flood-opacity="1" clip-rule="nonzero" src="none" height="300" unicode-bidi="normal" stroke-linejoin="miter" stroke-opacity="1" flood-color="rgb(0, 0, 0)" dominant-baseline="auto" marker-start="none" marker-mid="none">
          <path fill="#323842" d="M196.439 9.176h-89.744c-12.793 0-23.161 6.51-23.161 19.3V275.2c0 12.79 10.368 19.3 23.161 19.3h89.744c12.79 0 23.161-6.51 23.161-19.3V28.477c.001-12.79-10.371-19.301-23.161-19.301z"/>
          <g fill="#D8D8D8">
            <path d="M197.115 6.04H182.66c-.782 0-1.417.782-1.417 1.749v1.387H198.532V7.789c0-.967-.635-1.749-1.417-1.749zM80.399 67.854v10.917c0 .782.781 1.417 1.749 1.417h1.386v-13.75h-1.386c-.967 0-1.749.634-1.749 1.416zM80.399 41.076V57.541c0 .782.781 1.417 1.749 1.417h1.386V39.659h-1.386c-.967-.001-1.749.635-1.749 1.417zM80.399 88.481v10.917c0 .782.781 1.417 1.749 1.417h1.386V87.064h-1.386c-.967 0-1.749.636-1.749 1.417z"/>
          </g>
          <path fill="#DCDEE2" d="M90.772 39.658h121.59v221.228H90.772z"/>
          <g fill="#454B53">
            <circle cx="152.131" r="3.377" cy="20.6"/>
            <path d="M165.559 27.193h-27.983a2.492 2.492 0 0 0-2.493 2.493 2.492 2.492 0 0 0 2.493 2.494h27.983a2.493 2.493 0 1 0 0-4.987zM151.568 274.521a3.978 3.978 0 0 0-3.976 3.975 3.978 3.978 0 0 0 3.976 3.976 3.977 3.977 0 0 0 3.974-3.976 3.977 3.977 0 0 0-3.974-3.975z"/>
            <path d="M151.568 268.967c-5.263 0-9.53 4.268-9.53 9.529 0 5.263 4.268 9.53 9.53 9.53s9.528-4.268 9.528-9.53c.001-5.262-4.266-9.529-9.528-9.529zm0 14.194c-2.575 0-4.665-2.091-4.665-4.665s2.09-4.665 4.665-4.665c2.574 0 4.664 2.091 4.664 4.665s-2.089 4.665-4.664 4.665z"/>
          </g>
        </svg>
      </g>
    </g>
    <g text-rendering="geometricPrecision" stroke-miterlimit="1.45" shape-rendering="geometricPrecision" transform="matrix(1,0,0,1,14,-336)" stroke-linecap="butt">
      <path fill="none" d="M248.5285 588.0385 L284.0285 588.0385 L288.4035 587.4135 L291.5285 585.5385 L293.4035 582.4135 L294.0285 578.0385 L294.0285 420.5 L294.6535 416.125 L296.5285 413 L299.6535 411.125 L304.0285 410.5 L332.5126 410.5" clip-path="url(#clipPath2)"/>
      <path d="M340.5126 410.5 L328.5126 405.5 L331.5126 410.5 L328.5126 415.5 Z" clip-path="url(#clipPath2)" stroke="none"/>
    </g>
    <g text-rendering="geometricPrecision" stroke-miterlimit="1.45" shape-rendering="geometricPrecision" font-family="sans-serif" transform="matrix(0,-1,1,0,310.0285,231.9489)" stroke-linecap="butt">
      <text x="2" xml:space="preserve" y="14.0645" clip-path="url(#clipPath4)" stroke="none">Filter Created From Txns</text>
    </g>
    <g text-rendering="geometricPrecision" stroke-miterlimit="1.45" shape-rendering="geometricPrecision" transform="matrix(1,0,0,1,14,-336)" stroke-linecap="butt">
      <path fill="none" d="M248.5285 505.5385 L284.0285 505.5385 L288.4035 504.9135 L291.5285 503.0385 L293.4035 499.9135 L294.0285 495.5385 L294.0285 420.8565 L294.6535 416.4815 L296.5285 413.3565 L299.6535 411.4815 L304.0285 410.8565 L332.5006 410.8565" clip-path="url(#clipPath2)"/>
      <path d="M340.5006 410.8565 L328.5006 405.8565 L331.5006 410.8565 L328.5006 415.8565 Z" clip-path="url(#clipPath2)" stroke="none"/>
      <path fill="none" stroke-dasharray="6,2" d="M103 633.0391 L103 703.5 L103.625 707.875 L105.5 711 L108.625 712.875 L113 713.5 L783 713.5 L787.375 712.875 L790.5 711 L792.375 707.875 L793 703.5 L793 641.0436" clip-path="url(#clipPath2)"/>
      <path stroke-dasharray="6,2" d="M793 633.0436 L788 645.0436 L793 642.0436 L798 645.0436 Z" clip-path="url(#clipPath2)" stroke="none"/>
      <text x="334.6123" xml:space="preserve" y="729.5645" clip-path="url(#clipPath2)" font-family="sans-serif" stroke="none">3) Lightweight Client Downloads Full Block</text>
      <path fill="none" d="M471.6197 447.3565 L471.6197 457.3565 L472.2447 461.7315 L474.1197 464.8565 L477.2447 466.7315 L481.6197 467.3565 L635.7109 467.3565 L640.0859 466.7315 L643.2109 464.8565 L645.0859 461.7315 L645.7109 457.3565 L645.7109 409.6683 L646.3359 405.2933 L648.2109 402.1683 L651.3359 400.2933 L655.7109 399.6683 L679.6689 399.6683" stroke-width="2" clip-path="url(#clipPath2)"/>
      <path d="M688.6689 399.6683 L675.1689 394.0433 L678.5439 399.6683 L675.1689 405.2933 Z" stroke-width="2" clip-path="url(#clipPath2)" stroke="none"/>
      <text x="457.9514" xml:space="preserve" y="483.421" clip-path="url(#clipPath2)" font-family="sans-serif" stroke="none">1) Lightweight Client Downloads Filter</text>
      <path fill="none" stroke-dasharray="6,2" d="M727.4 633.0558 L727.4 665.5 L726.775 669.875 L724.9 673 L721.775 674.875 L717.4 675.5 L179 675.5 L174.625 674.875 L171.5 673 L169.625 669.875 L169 665.5 L169 641.0136" clip-path="url(#clipPath2)"/>
      <path stroke-dasharray="6,2" d="M169 633.0136 L164 645.0136 L169 642.0136 L174 645.0136 Z" clip-path="url(#clipPath2)" stroke="none"/>
      <text x="293.7908" xml:space="preserve" y="668.8633" clip-path="url(#clipPath2)" font-family="sans-serif" stroke="none">2) Lightweight Client Requests Full Block Only As Needed</text>
    </g>
  </g>
</svg>
